<?xml version="1.0" encoding="UTF-8" standalone="no" ?>
<!DOCTYPE svg PUBLIC "-//W3C//DTD SVG 1.1//EN" "http://www.w3.org/Graphics/SVG/1.1/DTD/svg11.dtd">
<svg xmlns="http://www.w3.org/2000/svg" xmlns:xlink="http://www.w3.org/1999/xlink" version="1.1" width="1080" height="1080" viewBox="0 0 1080 1080" xml:space="preserve">
<desc>Created with Fabric.js 5.2.4</desc>
<defs>
</defs>
<g transform="matrix(1 0 0 1 540 540)" id="8e985959-efdb-489b-8e97-50722d03b032"  >
<rect style="stroke: none; stroke-width: 1; stroke-dasharray: none; stroke-linecap: butt; stroke-dashoffset: 0; stroke-linejoin: miter; stroke-miterlimit: 4; fill: rgb(255,255,255); fill-rule: nonzero; opacity: 1; visibility: hidden;" vector-effect="non-scaling-stroke"  x="-540" y="-540" rx="0" ry="0" width="1080" height="1080" />
</g>
<g transform="matrix(1 0 0 1 540 540)" id="4ec50513-2aa6-4e72-a3fd-4ad6f39e7e89"  >
</g>
<g transform="matrix(NaN NaN NaN NaN 0 0)"  >
<g style=""   >
</g>
</g>
<g transform="matrix(45 0 0 45 540 540)"  >
<path style="stroke: rgb(0,0,0); stroke-opacity: 0; stroke-width: 1; stroke-dasharray: none; stroke-linecap: butt; stroke-dashoffset: 0; stroke-linejoin: miter; stroke-miterlimit: 4; fill: rgb(114,117,126); fill-rule: nonzero; opacity: 1;"  transform=" translate(-12, -12.01)" d="M 21.743 12.331 L 12.742999999999999 2.3309999999999995 C 12.363999999999999 1.9089999999999996 11.636 1.9089999999999996 11.256999999999998 2.3309999999999995 L 2.256999999999998 12.331 C 1.9923221116052898 12.624387306489611 1.925662192769292 13.046305381004515 2.086999999999998 13.407 C 2.246999999999998 13.768 2.6049999999999978 14 2.9999999999999982 14 L 4.999999999999998 14 L 4.999999999999998 21 C 4.999999999999998 21.552284749830793 5.447715250169205 22 5.999999999999998 22 L 8.999999999999998 22 C 9.552284749830791 22 9.999999999999998 21.552284749830793 9.999999999999998 21 L 9.999999999999998 17 L 13.999999999999998 17 L 13.999999999999998 21 C 13.999999999999998 21.552284749830793 14.447715250169205 22 14.999999999999998 22 L 18 22 C 18.552284749830793 22 19 21.552284749830793 19 21 L 19 14 L 21 14 C 21.39571516257057 14.001685365479437 21.755048791733813 13.769406748758655 21.915986439716963 13.407892705038767 C 22.07692408770011 13.04637866131888 22.009062990107083 12.62392288343578 21.743 12.331 z" stroke-linecap="round" />
</g>
<g transform="matrix(NaN NaN NaN NaN 0 0)"  >
<g style=""   >
</g>
</g>
<g transform="matrix(NaN NaN NaN NaN 0 0)"  >
<g style=""   >
</g>
</g>
<g transform="matrix(NaN NaN NaN NaN 0 0)"  >
<g style=""   >
</g>
</g>
<g transform="matrix(NaN NaN NaN NaN 0 0)"  >
<g style=""   >
</g>
</g>
</svg>